HIERARCHY
ROOT SpineBase
{
  OFFSET 0.000000 0.000000 0.000000
  CHANNELS 6 Xposition Yposition Zposition Zrotation Xrotation Yrotation
  JOINT SpineMid
  {
    OFFSET 0.000000 26.128537 0.000000
    CHANNELS 3 Zrotation Xrotation Yrotation
    JOINT SpineShoulder
    {
      OFFSET -0.132009 19.665648 -0.448424
      CHANNELS 3 Zrotation Xrotation Yrotation
      JOINT Neck
      {
        OFFSET -0.077453 6.476092 -0.419553
        CHANNELS 3 Zrotation Xrotation Yrotation
        JOINT Head
        {
          OFFSET 2.811262 7.792467 6.694684
          CHANNELS 3 Zrotation Xrotation Yrotation
          End Site
          {
            OFFSET 0 0 0
          }
        }
      }
      JOINT ShoulderLeft
      {
        OFFSET -5.351925 -4.919344 -6.799750
        CHANNELS 3 Zrotation Xrotation Yrotation
        JOINT ElbowLeft
        {
          OFFSET -6.212052 -26.605686 5.789456
          CHANNELS 3 Zrotation Xrotation Yrotation
          JOINT WristLeft
          {
            OFFSET -0.120051 -17.464238 13.594496
            CHANNELS 3 Zrotation Xrotation Yrotation
            JOINT HandLeft
            {
              OFFSET -0.388434 -2.176727 -1.057593
              CHANNELS 3 Zrotation Xrotation Yrotation
              JOINT HandTipLeft
              {
                OFFSET 2.357368 0.698426 5.064729
                CHANNELS 3 Zrotation Xrotation Yrotation
                End Site
                {
                  OFFSET 0 0 0
                }
              }
              JOINT ThumbLeft
              {
                OFFSET -0.325524 -0.697750 -5.057233
                CHANNELS 3 Zrotation Xrotation Yrotation
                End Site
                {
                  OFFSET 0 0 0
                }
              }
            }
          }
        }
      }
      JOINT ShoulderRight
      {
        OFFSET 6.073037 -2.005091 -4.112690
        CHANNELS 3 Zrotation Xrotation Yrotation
        JOINT ElbowRight
        {
          OFFSET -16.334567 -21.041044 -0.842915
          CHANNELS 3 Zrotation Xrotation Yrotation
          JOINT WristRight
          {
            OFFSET -10.348285 -15.981113 7.233164
            CHANNELS 3 Zrotation Xrotation Yrotation
            JOINT HandRight
            {
              OFFSET 0.825304 -8.121664 5.372514
              CHANNELS 3 Zrotation Xrotation Yrotation
              JOINT HandTipRight
              {
                OFFSET 0.028216 -0.297318 -1.011275
                CHANNELS 3 Zrotation Xrotation Yrotation
                End Site
                {
                  OFFSET 0 0 0
                }
              }
              JOINT ThumbRight
              {
                OFFSET -0.161048 0.825972 -1.921939
                CHANNELS 3 Zrotation Xrotation Yrotation
                End Site
                {
                  OFFSET 0 0 0
                }
              }
            }
          }
        }
      }
    }
  }
  JOINT HipLeft
  {
    OFFSET -5.894405 1.032632 -4.395106
    CHANNELS 3 Zrotation Xrotation Yrotation
    JOINT KneeLeft
    {
      OFFSET 9.928673 -42.798836 1.926406
      CHANNELS 3 Zrotation Xrotation Yrotation
      JOINT AnkleLeft
      {
        OFFSET -1.140304 -29.815226 -0.540259
        CHANNELS 3 Zrotation Xrotation Yrotation
        JOINT FootLeft
        {
          OFFSET 1.760758 -2.111448 -10.951608
          CHANNELS 3 Zrotation Xrotation Yrotation
          End Site
          {
            OFFSET 0 0 0
          }
        }
      }
    }
  }
  JOINT HipRight
  {
    OFFSET 4.657588 0.898437 -1.224330
    CHANNELS 3 Zrotation Xrotation Yrotation
    JOINT KneeRight
    {
      OFFSET -4.315098 -38.182173 -2.250341
      CHANNELS 3 Zrotation Xrotation Yrotation
      JOINT AnkleRight
      {
        OFFSET 5.722258 -32.966492 0.222665
        CHANNELS 3 Zrotation Xrotation Yrotation
        JOINT FootRight
        {
          OFFSET -2.443048 -6.262305 -0.247984
          CHANNELS 3 Zrotation Xrotation Yrotation
          End Site
          {
            OFFSET 0 0 0
          }
        }
      }
    }
  }
}
MOTION
Frames: 11
Frame Time: 0.033333
72.509223 75.811158 307.167196 -12.143921 -7.723824 -8.989628 -0.417584 -1.049118 7.749049 0.663428 0.180010 -0.563502 7.011170 -0.998134 8.510808 0.000000 0.000000 0.000000 7.424567 8.241243 -0.224699 -9.421239 -4.106508 -10.099268 27.200237 -12.379378 8.808796 -119.899759 38.067028 107.766524 0.000000 0.000000 0.000000 0.000000 0.000000 0.000000 10.684516 8.614451 0.276922 1.223336 0.093396 -0.123532 -21.520428 -13.013111 -17.120589 74.955553 -38.312896 120.298610 0.000000 0.000000 0.000000 0.000000 0.000000 0.000000 7.954801 10.414560 7.989153 8.323739 -3.098106 0.009277 -24.269471 -41.464286 -43.839424 0.000000 0.000000 0.000000 13.015602 6.799070 7.191865 -3.740107 2.493007 -0.148079 61.059283 54.227251 -65.156217 0.000000 0.000000 0.000000
73.113281 75.504547 306.351567 -13.535029 -8.029212 -8.100815 -0.443179 -0.844078 6.708605 0.477763 0.091887 -0.629270 8.566536 -0.831344 8.501857 0.000000 0.000000 0.000000 7.217154 8.336190 -0.331580 -8.479129 -3.347009 -10.342853 32.326744 -17.679390 10.172698 -127.132762 33.396424 114.450091 0.000000 0.000000 0.000000 0.000000 0.000000 0.000000 12.207779 8.849919 0.246818 1.242449 0.099183 -0.128929 -13.761962 -1.236341 -9.449523 66.076383 -42.814426 136.607946 0.000000 0.000000 0.000000 0.000000 0.000000 0.000000 9.048445 9.438015 6.545068 8.298051 -1.726650 0.168801 -72.786510 -58.924283 -92.081414 0.000000 0.000000 0.000000 15.689689 5.575215 5.995524 -6.569025 4.511539 0.064893 61.857539 53.112970 -63.228239 0.000000 0.000000 0.000000
73.561487 75.452201 305.576136 -14.742270 -8.246781 -7.641215 -0.431452 -0.680793 6.118035 0.322437 0.048044 -0.682341 9.000544 -0.696650 9.318668 0.000000 0.000000 0.000000 6.105788 8.243095 -0.459248 -6.465513 -3.891444 -10.219097 31.812719 -17.876893 10.878970 -120.371950 36.600084 112.236383 0.000000 0.000000 0.000000 0.000000 0.000000 0.000000 13.503281 8.993325 0.220721 1.256941 0.103344 -0.132844 -11.730039 27.085066 -2.585215 55.645495 -61.408505 148.704353 0.000000 0.000000 0.000000 0.000000 0.000000 0.000000 10.181660 8.912689 5.658167 7.724302 -1.313804 0.308078 -102.551716 -58.692695 -117.860648 0.000000 0.000000 0.000000 19.329948 4.010882 5.125505 -12.190417 7.745283 0.942282 60.479444 50.282723 -56.528202 0.000000 0.000000 0.000000
74.117539 75.311426 304.823592 -15.642761 -8.279814 -6.042431 -0.343381 -0.512872 4.438528 0.177920 0.023900 -0.715989 8.879962 -0.681783 10.260618 0.000000 0.000000 0.000000 5.163593 8.461014 -0.629510 -4.765025 -4.001459 -9.941785 33.099436 -22.087653 12.819828 -115.397078 35.995467 115.354346 0.000000 0.000000 0.000000 0.000000 0.000000 0.000000 14.407485 8.932578 0.218111 1.268996 0.107022 -0.136273 -18.896533 50.659442 2.870176 89.656547 -74.725386 168.156163 0.000000 0.000000 0.000000 0.000000 0.000000 0.000000 10.683706 8.528004 3.944216 7.931209 -2.000665 0.419086 -107.607281 -63.473578 -115.513858 0.000000 0.000000 0.000000 22.856172 1.385499 3.428232 -19.185957 11.972900 2.679575 57.465872 44.981503 -45.955978 0.000000 0.000000 0.000000
74.596461 75.172406 304.173806 -17.211994 -8.638522 -5.557055 -0.112789 -0.404305 3.740173 0.388710 0.216288 -0.746165 10.345128 -0.647855 9.923569 0.000000 0.000000 0.000000 3.103685 7.702387 -0.722541 -1.538726 -1.778484 -9.188683 37.385641 -27.779616 14.817529 -121.890117 36.613752 118.192511 0.000000 0.000000 0.000000 0.000000 0.000000 0.000000 15.487548 9.064495 0.190613 1.278780 0.109221 -0.138434 -17.304989 62.966093 10.796854 160.565349 -70.992759 -154.875449 0.000000 0.000000 0.000000 0.000000 0.000000 0.000000 10.782331 8.992015 3.363026 10.384588 -3.632644 0.564305 -58.591974 -69.169680 -57.598118 0.000000 0.000000 0.000000 26.761720 -0.482775 2.619186 -26.510125 16.272110 5.201809 51.918373 35.561021 -31.679319 0.000000 0.000000 0.000000
75.250282 74.802006 303.428288 -18.102599 -8.683758 -5.058509 0.120354 -0.425875 3.123176 0.669840 0.342913 -0.758046 10.410001 -1.093873 10.376813 0.000000 0.000000 0.000000 0.628970 6.543209 -0.819689 2.620427 1.479425 -7.567132 41.234041 -36.188771 18.434095 -127.814202 33.285240 125.317733 0.000000 0.000000 0.000000 0.000000 0.000000 0.000000 15.836779 9.045818 0.192682 1.291689 0.113837 -0.142648 -27.828387 72.211128 20.926876 173.489893 -58.296809 -164.479875 0.000000 0.000000 0.000000 0.000000 0.000000 0.000000 11.056076 8.877709 2.767767 10.613691 -4.964545 0.702829 -20.788254 -52.473478 -15.224619 0.000000 0.000000 0.000000 29.552140 -2.668802 2.182012 -33.922706 19.675692 8.183744 46.591381 21.098089 -16.836841 0.000000 0.000000 0.000000
76.153939 74.781593 302.984380 -18.873997 -9.381721 -4.666747 0.001338 -0.399797 2.540832 0.484197 0.220855 -0.816068 11.283565 -0.226042 10.468492 0.000000 0.000000 0.000000 1.515853 6.912180 -0.686039 3.043193 3.191957 -7.281208 47.977490 -41.503555 21.991639 -137.758521 25.973763 130.539507 0.000000 0.000000 0.000000 0.000000 0.000000 0.000000 16.863201 9.867062 0.081291 1.309464 0.121368 -0.149387 -29.941870 60.990763 7.932932 158.614535 -52.798308 167.968253 0.000000 0.000000 0.000000 0.000000 0.000000 0.000000 11.403861 9.417241 2.137963 9.791439 -5.333462 0.735281 -9.416654 -30.013476 -3.217635 0.000000 0.000000 0.000000 31.793755 -3.950854 1.549761 -41.973759 21.946258 11.618146 36.927505 -6.604310 0.563071 0.000000 0.000000 0.000000
76.865325 75.117939 302.755574 -20.057035 -10.284689 -7.153375 -0.139064 -0.429546 4.736978 0.626200 0.121615 -0.901192 13.618803 0.945373 9.182249 0.000000 0.000000 0.000000 3.321643 8.449963 -0.571948 2.472551 3.641317 -7.199263 54.352373 -42.953067 23.160771 -140.828430 20.445917 130.176265 0.000000 0.000000 0.000000 0.000000 0.000000 0.000000 18.007022 10.939680 -0.083408 1.325865 0.129226 -0.156330 -35.833972 49.667095 -2.985644 146.981646 -48.520973 145.664374 0.000000 0.000000 0.000000 0.000000 0.000000 0.000000 12.000272 10.503483 4.105112 9.292942 -3.769579 0.705653 -4.882052 -12.200764 -3.959418 0.000000 0.000000 0.000000 34.387537 -2.497307 2.881222 -47.798135 22.829967 14.003835 35.697986 -14.687566 3.667497 0.000000 0.000000 0.000000
78.299868 75.319232 302.580233 -20.517655 -11.374009 -8.587058 0.223025 0.045546 5.961099 0.130046 -0.145926 -0.939692 13.750315 0.698042 9.959986 0.000000 0.000000 0.000000 5.080383 10.722038 -0.571999 1.344649 2.170321 -7.199834 57.014138 -34.715135 13.964736 -144.962812 15.396669 118.703245 0.000000 0.000000 0.000000 0.000000 0.000000 0.000000 18.499257 11.876777 -0.221158 1.347946 0.139083 -0.165110 -41.331707 43.031401 -9.908059 149.604060 -38.208625 144.774278 0.000000 0.000000 0.000000 0.000000 0.000000 0.000000 11.190174 11.340880 5.211652 10.585005 -3.096907 0.784550 -3.896355 -5.247163 -3.095512 0.000000 0.000000 0.000000 35.595802 -2.085036 3.534368 -53.095892 25.629415 17.608971 31.842252 -21.532947 4.359530 0.000000 0.000000 0.000000
79.941785 75.552140 302.931918 -20.916587 -13.197739 -9.686554 -0.035479 -0.254870 6.632637 0.385260 0.390850 -0.891381 15.248517 2.182253 8.676527 0.000000 0.000000 0.000000 5.821392 13.061161 -0.515233 1.111050 2.109218 -6.989563 52.030892 -41.333651 21.355328 -153.253845 12.963675 129.853981 0.000000 0.000000 0.000000 0.000000 0.000000 0.000000 18.834068 13.454042 -0.449325 1.375849 0.151197 -0.175943 -47.267947 41.027658 -14.125129 146.901715 -31.481780 143.621029 0.000000 0.000000 0.000000 0.000000 0.000000 0.000000 9.315258 12.124283 5.885994 14.610142 -0.909503 0.807808 -5.905524 -4.180579 -0.611841 0.000000 0.000000 0.000000 34.411173 1.019117 3.271122 -48.862349 26.715154 16.446794 26.934238 -25.831127 4.505380 0.000000 0.000000 0.000000
82.145907 75.797134 302.692047 -20.842988 -14.678401 -7.711523 0.054603 0.125878 4.439269 0.150743 -0.051797 -0.957220 16.070670 2.791422 8.008261 0.000000 0.000000 0.000000 6.086519 14.865791 -0.414579 0.632001 2.610379 -7.072281 49.099794 -44.456602 25.023423 -153.869719 6.304613 137.541047 0.000000 0.000000 0.000000 0.000000 0.000000 0.000000 18.788089 15.002315 -0.656788 1.403340 0.162926 -0.186461 -50.574064 40.228044 -16.401038 146.804204 -27.378626 143.796713 0.000000 0.000000 0.000000 0.000000 0.000000 0.000000 7.342264 12.278390 3.832593 18.742741 -0.975288 0.879754 -9.712932 -11.919955 9.300450 0.000000 0.000000 0.000000 29.326558 2.414872 1.614994 -33.762477 28.147645 11.804416 20.006898 -12.641123 -1.240170 0.000000 0.000000 0.000000
